<svg width="110" height="110" xmlns="http://www.w3.org/2000/svg" xmlns:svg="http://www.w3.org/2000/svg" class="mx-auto block h-24 mb-3">
 <defs>
  <linearGradient x1="0%" y1="0%" y2="100%" id="c">
   <stop stop-color="#2383AE" offset="0%"/>
   <stop stop-color="#6DD7B9" offset="100%"/>
  </linearGradient>
  <pattern id="gridpattern" patternUnits="userSpaceOnUse" x="0" y="0" width="100" height="100">
   <image id="svg_8" x="0" y="0" width="100" height="100"/>
  </pattern>
 </defs>
 <g>
  <title>Layer 1</title>
  <g id="svg_7">
   <g id="Layer_1-2">
    <path fill="#ff5c39" id="svg_1" class="cls-1" d="m72.40363,19.377a47.6,47.6 0 0 0 -34.529,-14.377l-30.984,0l0,7.245l30.984,0c23.467,0 41.165,18.268 41.167,42.492c0,24 -17.375,42.151 -40.519,42.484l0,7.245a47.553,47.553 0 0 0 33.881,-14.372a50.367,50.367 0 0 0 13.887,-35.368a50.339,50.339 0 0 0 -13.887,-35.349z"/>
    <path fill="#003d4c" id="svg_2" class="cls-2" d="m42.89563,68.126a1.75,1.75 0 0 0 -1.434,-0.459c-3.559,0.443 -7.969,-1.379 -10.558,-4.257a0.412,0.412 0 0 0 -0.581,-0.038l-0.019,0.017l-1.882,1.882a0.506,0.506 0 0 0 -0.02,0.7a17.271,17.271 0 0 0 12.039,5.34a11.816,11.816 0 0 0 1.407,-0.081a1.833,1.833 0 0 0 1.625,-1.681a1.8,1.8 0 0 0 -0.577,-1.423z"/>
    <path fill="#003d4c" id="svg_3" class="cls-2" d="m25.58263,41.077a2.312,2.312 0 1 0 2.308,2.316l0,0a2.316,2.316 0 0 0 -2.308,-2.316z"/>
    <path fill="#003d4c" id="svg_4" class="cls-2" d="m53.27763,41.019a2.313,2.313 0 1 0 2.313,2.313a2.314,2.314 0 0 0 -2.313,-2.313z"/>
    <path fill="#003d4c" id="svg_5" class="cls-2" d="m38.92862,83.485a26.209,26.209 0 0 0 4.094,-0.5c12.282,-2.6 20.672,-13.2 20.708,-26.6a16.484,16.484 0 0 0 -0.777,-5.863l-0.063,-0.184l0.176,-0.079a6.741,6.741 0 0 0 3.9,-5.2l0.417,-3.1a4.758,4.758 0 0 0 -4.06,-5.333a58.739,58.739 0 0 0 -6.584,-0.533l-0.114,0l-0.063,-0.093a6.558,6.558 0 0 0 -5.562,-3.028c-2.828,0 -3.33,2.345 -3.378,3.742l-0.005,0.118l-0.253,0.156l-0.144,-0.019c-2.964,-1.263 -7.342,-0.852 -10.157,0.063l-0.054,0.018l-0.055,-0.011c-1.682,-0.329 -3.336,-0.58 -4.916,-0.747l-0.162,-0.017l-0.03,-0.161c-0.167,-0.935 -0.844,-2.567 -3.48,-2.989a11.421,11.421 0 0 0 -10.1,3.391l-0.052,0.057l-0.077,0.011c-0.867,0.128 -1.773,0.285 -2.693,0.466l-0.036,0.006l-0.082,-0.01l-8.436,-0.008l0.009,3.57l6.825,0.013l0.6,4.439a6.68,6.68 0 0 0 6.62,5.79l10.569,0a6.68,6.68 0 0 0 6.621,-5.79l0.646,-4.811l0.142,-0.037a12.774,12.774 0 0 1 6.768,-0.012l0.069,0.027l0.039,0.062a53.886,53.886 0 0 1 4.75,9.308a11.28,11.28 0 0 1 0.462,2.993a5.32,5.32 0 0 1 -5.394,5.247a5.264,5.264 0 0 1 -3.826,-1.721a0.817,0.817 0 0 0 -1.153,-0.058l-0.032,0.031l-1.586,1.585a0.5,0.5 0 0 0 -0.034,0.666a8.9,8.9 0 0 0 6.452,3.115c0.082,0 0.3,-0.006 0.32,-0.006a8.907,8.907 0 0 0 8.833,-8.174a21.475,21.475 0 0 0 -0.1,-2.182l-0.03,-0.244l4.819,0l0.052,0.143a12.954,12.954 0 0 1 0.829,5.1c-0.249,5.85 -1.664,11.352 -5.5,15.932a22.559,22.559 0 0 1 -14.4,7.792l0,0a22.173,22.173 0 0 1 -17.379,-5.3a0.54,0.54 0 0 0 -0.736,0.025l-1.794,1.793a0.527,0.527 0 0 0 0.006,0.745l0.02,0.019a25.963,25.963 0 0 0 13.5,6.243a26.606,26.606 0 0 0 5.055,0.142l-0.004,0.002zm-4.342,-38.902a3.106,3.106 0 0 1 -3.069,2.684l-10.576,0a3.106,3.106 0 0 1 -3.069,-2.684l-0.572,-4.25l0.208,-0.035a52.082,52.082 0 0 1 17.438,0l0.207,0.035l-0.567,4.25zm28.833,0a3.108,3.108 0 0 1 -3.069,2.684l-6.86,0l-0.055,-0.135a53.963,53.963 0 0 0 -3.421,-6.777l-0.162,-0.278l0.318,-0.047a47.07,47.07 0 0 1 12.664,0.143a1.169,1.169 0 0 1 1,1.306l-0.415,3.104z"/>
   </g>
   <g fill="none" fill-rule="evenodd" id="svg_1">
    <path fill="url(#c)" id="svg_6" d="m62.13125,73.92c1.92,-7.68 6.72,-11.52 14.4,-11.52c11.52,0 12.96,8.64 18.72,10.08c3.84,0.96 7.2,-0.48 10.08,-4.32c-1.92,7.68 -6.72,11.52 -14.4,11.52c-11.52,0 -12.96,-8.64 -18.72,-10.08c-3.84,-0.96 -7.2,0.48 -10.08,4.32zm-14.4,17.28c1.92,-7.68 6.72,-11.52 14.4,-11.52c11.52,0 12.96,8.64 18.72,10.08c3.84,0.96 7.2,-0.48 10.08,-4.32c-1.92,7.68 -6.72,11.52 -14.4,11.52c-11.52,0 -12.96,-8.64 -18.72,-10.08c-3.84,-0.96 -7.2,0.48 -10.08,4.32z"/>
   </g>
  </g>
 </g>
</svg>